<?xml version="1.0" encoding="UTF-8"?>
<svg version="1.1" xmlns="http://www.w3.org/2000/svg" width="1200" height="1200">
<path d="M0 0 C396 0 792 0 1200 0 C1200 396 1200 792 1200 1200 C804 1200 408 1200 0 1200 C0 804 0 408 0 0 Z " fill="#2D1432" transform="translate(0,0)"/>
<path d="M0 0 C1.46335315 30.86049197 -9.72017211 58.843859 -30 82 C-30.96873047 83.16789062 -30.96873047 83.16789062 -31.95703125 84.359375 C-49.90782521 105.56397887 -76.69890189 118.83450112 -103.81420898 123.49438477 C-104.54322387 123.62099519 -105.27223875 123.74760561 -106.02334499 123.87805271 C-113.81566569 125.19381706 -121.64525796 126.14381397 -129.49443245 127.04688835 C-132.11784777 127.34937841 -134.74031304 127.65919398 -137.36265564 127.97084045 C-144.8047888 128.85433212 -152.24807757 129.72768118 -159.69262695 130.59057617 C-164.28449462 131.12333103 -168.87505387 131.66638843 -173.46499443 132.21548653 C-175.19015805 132.41984424 -176.915774 132.62042686 -178.64186287 132.81681633 C-202.14851576 135.49330791 -222.35563498 140.70186857 -238.12890625 159.54296875 C-247.1494747 171.79769349 -250.30116421 183.52658916 -250.2784729 198.48374939 C-250.28347947 199.86335262 -250.28935632 201.24295292 -250.29602563 202.62254912 C-250.31179601 206.40347287 -250.31525468 210.18432226 -250.31667423 213.96527493 C-250.32037346 218.0463294 -250.33553155 222.12734331 -250.34928894 226.20837402 C-250.37154917 233.27569592 -250.38656989 240.34300336 -250.39665604 247.41035271 C-250.41124934 257.62851429 -250.43678801 267.84662552 -250.46498732 278.06475753 C-250.51044345 294.64350015 -250.54706314 311.22225002 -250.578125 327.80102539 C-250.60831536 343.90455397 -250.64266788 360.00806481 -250.68261719 376.11157227 C-250.68507874 377.10440273 -250.68754028 378.09723319 -250.69007643 379.12014943 C-250.70245112 384.10095088 -250.71490764 389.08175213 -250.72740483 394.06255329 C-250.83095498 435.37501084 -250.92016407 476.68749024 -251 518 C-251.66 518 -252.32 518 -253 518 C-252.94199219 518.92296875 -252.88398437 519.8459375 -252.82421875 520.796875 C-252.88629584 543.30264143 -267.19147451 565.17243981 -282 581 C-282.78761719 581.87914062 -283.57523438 582.75828125 -284.38671875 583.6640625 C-302.56559695 603.07489773 -329.7932788 613.96305067 -356 616 C-358.33331066 616.01028634 -360.66669551 616.01160245 -363 616 C-363.01710976 570.44307034 -363.03303149 524.88614036 -363.04234314 479.32920837 C-363.0424812 478.65549189 -363.04261925 477.9817754 -363.04276149 477.28764326 C-363.04575405 462.64774226 -363.04852428 448.00784122 -363.05106533 433.36794013 C-363.05231272 426.18905969 -363.05360927 419.01017926 -363.05493164 411.83129883 C-363.0550624 411.11689478 -363.05519316 410.40249073 -363.05532788 409.66643808 C-363.05959306 386.48956164 -363.06710721 363.31268764 -363.07629722 340.13581268 C-363.08572009 316.32856162 -363.09188318 292.5213119 -363.09391499 268.714059 C-363.09420317 265.3553315 -363.0945288 261.99660401 -363.09487724 258.63787651 C-363.09494467 257.976798 -363.09501209 257.3157195 -363.09508156 256.63460831 C-363.09633876 245.31250153 -363.10166698 233.99040053 -363.10791647 222.66829573 C-363.11318185 212.6203101 -363.11480477 202.57232809 -363.11350138 192.52434117 C-363.11285767 186.71777346 -363.11387916 180.91121797 -363.11920547 175.1046524 C-363.1240378 169.79819749 -363.12433976 164.49176314 -363.12089889 159.18530732 C-363.12047304 157.2566343 -363.12177017 155.32796005 -363.12488318 153.3992895 C-363.1288444 150.79555082 -363.12676513 148.19188826 -363.12304783 145.58815098 C-363.12567484 144.82390087 -363.12830186 144.05965076 -363.13100848 143.27224156 C-363.1141458 138.1141458 -363.1141458 138.1141458 -362 137 C-361.75161601 135.64534762 -361.55693961 134.28073823 -361.38671875 132.9140625 C-359.74545508 120.48344971 -357.54117464 109.96621542 -351.140625 99.03515625 C-349.85289777 96.84346267 -349.85289777 96.84346267 -348.6875 93.6875 C-344.18330502 82.88738607 -336.00062278 74.29606675 -328 66 C-327.34386719 65.28070313 -326.68773437 64.56140625 -326.01171875 63.8203125 C-307.22675743 43.78838373 -279.7543241 32.93492775 -253 29.6328125 C-252.05920593 29.51331238 -251.11841187 29.39381226 -250.14910889 29.27069092 C-247.09992256 28.88456035 -244.05000608 28.50459632 -241 28.125 C-238.87138623 27.8571961 -236.74280577 27.58912727 -234.61425781 27.32080078 C-228.4103336 26.5404875 -222.20534167 25.76894938 -216 25 C-215.16621826 24.89647217 -214.33243652 24.79294434 -213.47338867 24.6862793 C-196.74888535 22.61036322 -180.01256583 20.64839322 -163.26754761 18.74642944 C-136.79409973 15.73781146 -110.35996756 12.42260364 -83.92370605 9.10598755 C-67.64221883 7.06457658 -51.35714406 5.05872399 -35.0625 3.125 C-34.19263458 3.02172394 -33.32276917 2.91844788 -32.42654419 2.81204224 C-29.98366716 2.52240183 -27.54069815 2.23355872 -25.09765625 1.9453125 C-24.40329468 1.86334122 -23.70893311 1.78136993 -22.99353027 1.69691467 C-21.6733211 1.5418554 -20.35298043 1.38791099 -19.03250122 1.23516846 C-17.57393714 1.0664068 -16.11570005 0.89480986 -14.65768433 0.72137451 C-9.72029843 0.14733206 -4.97154468 -0.09039172 0 0 Z " fill="#EE818C" transform="translate(915,150)"/>
<path d="M0 0 C196.35 0 392.7 0 595 0 C595 0.33 595 0.66 595 1 C587.61272827 1.61782435 580.22538897 2.23483689 572.8380127 2.85140991 C570.1551351 3.07535711 567.47227496 3.29951189 564.78942871 3.52383423 C549.89078443 4.76940686 534.99154016 6.00613823 520.08916283 7.20631981 C518.00711078 7.37411214 515.92509578 7.5423564 513.84309387 7.71076965 C513.16439963 7.7656615 512.48570539 7.82055334 511.78644466 7.87710857 C510.4310287 7.98673823 509.07561398 8.09638331 507.72020054 8.2060442 C504.43297592 8.47173341 501.14561764 8.73558766 497.85806274 8.99716187 C485.84202137 9.95333094 473.87964629 10.94591955 461.93066406 12.54223633 C452.55753644 13.63382728 443.11486837 14.08130824 433.69970703 14.67724609 C430.9349561 14.8538843 428.17061837 15.03623616 425.40625 15.21875 C424.59845093 15.26777466 423.79065186 15.31679932 422.95837402 15.36730957 C417.71006199 15.71451083 412.51315636 16.29677369 407.29858398 16.97705078 C399.48721402 17.99015346 391.67593024 18.61974802 383.81640625 19.1484375 C382.4226292 19.24733246 381.02890762 19.34701177 379.63523865 19.44741821 C373.81573478 19.86627032 367.99590765 20.27938638 362.17456055 20.671875 C340.95824365 22.10909398 321.62788302 24.24226744 302 33 C300.97390625 33.45117188 299.9478125 33.90234375 298.890625 34.3671875 C273.5903735 46.21413066 253.98728513 67.47167875 243 93 C240.91018618 98.92225195 239.20252187 104.83812998 238 111 C220.37921777 111.04686595 202.75845518 111.08206001 185.13762474 111.10362434 C176.95468427 111.11390628 168.77178269 111.12790716 160.58886719 111.15087891 C153.4508291 111.17090772 146.3128192 111.1837388 139.17475379 111.18817699 C135.40048774 111.19076841 131.62630227 111.19679392 127.85206223 111.21146011 C124.28818038 111.22519461 120.72441109 111.22919118 117.16050529 111.22621536 C115.2523491 111.22701442 113.34420472 111.23769199 111.43608093 111.24884033 C100.33892442 111.22280779 89.28080654 110.09867392 78.625 106.875 C77.92294434 106.66472168 77.22088867 106.45444336 76.49755859 106.23779297 C68.55139115 103.72520594 61.25524237 100.0612494 54 96 C53.00226563 95.44441406 52.00453125 94.88882813 50.9765625 94.31640625 C30.39881742 82.02282502 12.2537116 59.89960972 5 37 C4.79004395 36.38640625 4.58008789 35.7728125 4.36376953 35.140625 C3.62467207 32.9576973 2.9335801 30.76340459 2.25 28.5625 C2.02658936 27.90193604 1.80317871 27.24137207 1.57299805 26.56079102 C-1.0694209 17.52619516 0 10.03534777 0 0 Z " fill="#F09B92" transform="translate(301,150)"/>
<path d="M0 0 C65.87179487 0 65.87179487 0 80.6875 13.4375 C81.450625 14.283125 82.21375 15.12875 83 16 C83.48082031 16.48855469 83.96164062 16.97710938 84.45703125 17.48046875 C92.46879078 26.01958461 95.13731962 35.90866772 95.17700195 47.34765625 C95.18357315 48.17606522 95.19014435 49.00447418 95.19691467 49.85798645 C95.2165817 52.59282537 95.22829867 55.3276094 95.23828125 58.0625 C95.24235678 59.00152161 95.2464323 59.94054321 95.25063133 60.90802002 C95.27146902 65.88317644 95.28577787 70.85830552 95.29516602 75.83349609 C95.30619537 80.94292172 95.34056169 86.05190766 95.38033772 91.16117859 C95.40663565 95.11461124 95.41486972 99.06794146 95.41844749 103.02145386 C95.42328341 104.90309603 95.43481059 106.78473457 95.45348549 108.66629028 C95.61617986 126.15203624 93.07530173 140.29082737 80.8125 153.75 C58.24530326 174.84982296 29.43044609 169 0 169 C0 113.23 0 57.46 0 0 Z " fill="#F6DADE" transform="translate(807,882)"/>
<path d="M0 0 C57 0 57 0 70 3 C70.495 4.485 70.495 4.485 71 6 C73.97 6.495 73.97 6.495 77 7 C77 7.66 77 8.32 77 9 C77.53625 9.226875 78.0725 9.45375 78.625 9.6875 C84.56272011 12.96887164 88.22990776 17.22077519 91.75 22.875 C92.13542969 23.46152344 92.52085937 24.04804687 92.91796875 24.65234375 C97.56984459 31.97623131 98.34276114 38.92201642 98.3125 47.4375 C98.32861328 48.34048828 98.34472656 49.24347656 98.36132812 50.17382812 C98.36567046 56.17059733 97.41365044 60.51060049 95 66 C94.319375 67.7634375 94.319375 67.7634375 93.625 69.5625 C92.33333472 72.29486885 91.17166867 74.2082445 89.375 76.5625 C87.04738475 79.77275834 85.75364873 81.89414545 86 86 C87.30803232 88.22454477 88.79253832 90.27038428 90.30352783 92.36175537 C96.14817621 101.45097739 96.55820508 111.22882057 96.390625 121.734375 C96.38314198 123.10727097 96.37745883 124.4801778 96.37347412 125.85308838 C96.35837928 129.42397839 96.31924335 132.99419209 96.2746582 136.56481934 C96.23335105 140.22540989 96.21516736 143.88611561 96.1953125 147.546875 C96.15486208 154.69850915 96.07653425 161.84829908 96 169 C86.1 169 76.2 169 66 169 C65.94392578 163.05806641 65.94392578 163.05806641 65.88671875 156.99609375 C65.84047875 153.15025377 65.78925388 149.30451016 65.73754883 145.45874023 C65.702711 142.79040589 65.67629674 140.1223661 65.65356445 137.45385742 C65.61994585 133.61346857 65.56762359 129.77371498 65.51171875 125.93359375 C65.50532883 124.74479111 65.4989389 123.55598846 65.49235535 122.3311615 C65.35603736 114.6136078 64.75584389 109.36825365 59.75 103.25 C53.41452589 98.06643027 47.48273294 97.5120739 39.5625 97.3125 C38.64017578 97.27833984 37.71785156 97.24417969 36.76757812 97.20898438 C34.51184049 97.12717006 32.25645881 97.05780878 30 97 C30.00222061 97.8872728 30.00444122 98.77454559 30.00672913 99.68870544 C30.02672961 108.03244657 30.04197289 116.37617969 30.05181217 124.71993923 C30.05704061 129.00999915 30.06413753 133.30003933 30.07543945 137.59008789 C30.08626975 141.726794 30.09227714 145.86348108 30.09487724 150.00020027 C30.09673124 151.58192304 30.10035136 153.16364471 30.10573006 154.74535942 C30.1129424 156.95322838 30.11399086 159.16101773 30.11352539 161.36889648 C30.115746 162.62798325 30.11796661 163.88707001 30.12025452 165.18431091 C30 168 30 168 29 169 C19.43 169 9.86 169 0 169 C0 113.23 0 57.46 0 0 Z " fill="#F5D9DE" transform="translate(204,882)"/>
<path d="M0 0 C0.9583374 0.00523682 1.9166748 0.01047363 2.90405273 0.01586914 C4.45576172 0.02070312 4.45576172 0.02070312 6.03881836 0.02563477 C7.12743164 0.03401367 8.21604492 0.04239258 9.33764648 0.05102539 C10.97636719 0.05779297 10.97636719 0.05779297 12.64819336 0.06469727 C15.35723144 0.07652713 18.06616248 0.09300996 20.77514648 0.11352539 C25.19385741 8.66833814 29.11135972 17.36275072 32.83764648 26.23852539 C35.93017 33.5956428 39.0755073 40.85321081 42.70996094 47.9597168 C44.12323703 50.81736559 45.24964787 53.743686 46.33764648 56.73852539 C47.66974336 60.29908339 49.00706383 63.74777769 50.77514648 67.11352539 C53.12981801 71.60271623 54.84456667 76.32360774 56.62670898 81.06274414 C57.64257365 83.76135062 58.69983079 86.4382463 59.77514648 89.11352539 C59.77292587 88.0132753 59.77070526 86.91302521 59.76841736 85.7794342 C59.74818682 75.43429719 59.73317477 65.08916416 59.72333431 54.74401188 C59.71810526 49.42487326 59.71100722 44.10575055 59.69970703 38.78662109 C59.68887893 33.65788554 59.68286982 28.52916533 59.68026924 23.40041924 C59.67841485 21.43910925 59.67479398 19.47780015 59.66941643 17.51649666 C59.66220702 14.77937092 59.6611555 12.04230942 59.66162109 9.30517578 C59.65802582 8.48590607 59.65443054 7.66663635 59.65072632 6.82254028 C59.66109432 1.22757755 59.66109432 1.22757755 60.77514648 0.11352539 C70.01514648 0.11352539 79.25514648 0.11352539 88.77514648 0.11352539 C88.77514648 55.55352539 88.77514648 110.99352539 88.77514648 168.11352539 C80.85514648 168.11352539 72.93514648 168.11352539 64.77514648 168.11352539 C62.73415743 164.71187697 61.15031756 161.73828078 59.65795898 158.13305664 C58.25950518 154.93393888 56.64999148 151.84399256 55.05639648 148.73852539 C52.97048676 144.46495426 51.17469528 140.07200583 49.34545898 135.68383789 C46.80561009 129.62938729 44.15550621 123.79838517 40.85327148 118.11352539 C39.81114771 116.18031027 39.05619957 114.31063195 38.33764648 112.23852539 C36.78479417 107.79293106 34.49119477 103.83069585 32.19702148 99.73071289 C30.49082946 96.59019461 29.12490428 93.42043198 27.77514648 90.11352539 C27.11514648 88.79352539 26.45514648 87.47352539 25.77514648 86.11352539 C25.77514648 113.17352539 25.77514648 140.23352539 25.77514648 168.11352539 C16.20514648 168.11352539 6.63514648 168.11352539 -3.22485352 168.11352539 C-3.24797035 146.35670223 -3.26583163 124.59988201 -3.27666569 102.84304905 C-3.2818291 92.74171596 -3.28887266 82.64039062 -3.30029297 72.5390625 C-3.31023842 63.73808075 -3.31670661 54.93710461 -3.31894201 46.1361174 C-3.32024935 41.47306272 -3.32333669 36.81002411 -3.33058357 32.14697456 C-3.3373416 27.76320173 -3.33947092 23.37945168 -3.3379612 18.99567413 C-3.33823762 17.38192305 -3.34024403 15.76817126 -3.34405899 14.15442467 C-3.34899286 11.96083649 -3.34785296 9.76733569 -3.34510803 7.57374573 C-3.34602983 6.34315209 -3.34695162 5.11255846 -3.34790134 3.84467411 C-3.18200039 0.16236477 -3.18200039 0.16236477 0 0 Z " fill="#F5D9DD" transform="translate(1063.224853515625,881.886474609375)"/>
<path d="M0 0 C5.39346988 -0.02464849 10.78690725 -0.04283531 16.18041992 -0.05493164 C18.01668875 -0.05997231 19.85295354 -0.06680477 21.68920898 -0.07543945 C24.32276401 -0.08751672 26.95626616 -0.09323081 29.58984375 -0.09765625 C30.41588608 -0.10281754 31.24192841 -0.10797882 32.09300232 -0.11329651 C34.06236368 -0.11349205 36.03161614 -0.06204152 38 0 C39.52084779 1.52084779 39.36604244 3.06535239 39.63072205 5.18066406 C39.74469865 6.06292664 39.85867525 6.94518921 39.97610569 7.85418701 C40.09734775 8.81496155 40.2185898 9.77573608 40.34350586 10.765625 C41.79441604 21.81316782 43.58014842 32.77636504 45.50390625 43.75 C45.83134902 45.6322863 46.15856886 47.5146114 46.48558044 49.39697266 C47.1627793 53.28953151 47.842885 57.1815676 48.52514648 61.07324219 C49.39743257 66.05047657 50.26173775 71.02906031 51.12390232 76.00805664 C51.79404244 79.87253319 52.46853561 83.73624022 53.14433098 87.59973145 C53.46506472 89.4366437 53.7844074 91.27379944 54.10229683 93.11120605 C54.54494008 95.66608721 54.99350092 98.21986141 55.44360352 100.7734375 C55.57196091 101.52146637 55.7003183 102.26949524 55.83256531 103.04019165 C56.56929295 107.17866616 57.62696301 111.03231386 59 115 C59.32652738 117.34708996 59.59047969 119.70322927 59.8125 122.0625 C60.80893484 131.77049495 62.56396566 141.339192 64.32348633 150.93383789 C64.53900146 152.13387451 64.7545166 153.33391113 64.9765625 154.5703125 C65.17330566 155.64039551 65.37004883 156.71047852 65.57275391 157.81298828 C66 161 66 161 66 168 C56.43 168 46.86 168 37 168 C35 155 35 155 35 150 C24.44 150 13.88 150 3 150 C3 150.66 3 151.32 3 152 C2.34 152 1.68 152 1 152 C0.90912109 153.35544922 0.90912109 153.35544922 0.81640625 154.73828125 C0.69072266 156.50751953 0.69072266 156.50751953 0.5625 158.3125 C0.48128906 159.48425781 0.40007812 160.65601563 0.31640625 161.86328125 C0 165 0 165 -1 168 C-10.24 168 -19.48 168 -29 168 C-29 162.63536205 -28.8899968 158.23888506 -28.0625 153.0625 C-27.88847656 151.93972656 -27.71445312 150.81695313 -27.53515625 149.66015625 C-27 147 -27 147 -26 146 C-25.79016721 143.85795689 -25.63176615 141.71075887 -25.5 139.5625 C-25.11013767 133.22027534 -25.11013767 133.22027534 -24 131 C-23.5637189 127.83604544 -23.18331073 124.67290821 -22.83789062 121.49804688 C-22.41184869 117.96155242 -22.0133935 116.02009025 -20 113 C-19.58073551 110.52375646 -19.58073551 110.52375646 -19.4375 107.875 C-19.09828393 103.09828393 -19.09828393 103.09828393 -18 102 C-17.73669733 100.23033485 -17.53174456 98.45192484 -17.3515625 96.671875 C-17.17669312 95.0170813 -17.17669312 95.0170813 -16.99829102 93.32885742 C-16.87510498 92.14783447 -16.75191895 90.96681152 -16.625 89.75 C-15.75539414 81.82875864 -14.84842552 74.09306771 -12.82421875 66.37109375 C-11.41263549 60.59765131 -10.41582903 54.73846963 -9.35766602 48.89135742 C-9.19580811 48.01455322 -9.0339502 47.13774902 -8.8671875 46.234375 C-8.72394043 45.44256836 -8.58069336 44.65076172 -8.43310547 43.83496094 C-8 42 -8 42 -7 41 C-6.79224439 39.33795513 -6.63281745 37.66970509 -6.5 36 C-6.11111111 31.11111111 -6.11111111 31.11111111 -5 30 C-4.79224439 28.33795513 -4.63281745 26.66970509 -4.5 25 C-4.11111111 20.11111111 -4.11111111 20.11111111 -3 19 C-2.62416062 16.7567087 -2.29938825 14.50476779 -2 12.25 C-1.44848363 8.13086209 -0.83666624 4.07003267 0 0 Z " fill="#F7DBDF" transform="translate(386,882)"/>
<path d="M0 0 C26.4 0 52.8 0 80 0 C80 9.9 80 19.8 80 30 C63.5 30 47 30 30 30 C30 42.21 30 54.42 30 67 C46.5 67 63 67 80 67 C80 76.9 80 86.8 80 97 C63.5 97 47 97 30 97 C30 110.53 30 124.06 30 138 C46.5 138 63 138 80 138 C80 148.23 80 158.46 80 169 C53.6 169 27.2 169 0 169 C0 113.23 0 57.46 0 0 Z " fill="#F5DADE" transform="translate(661,882)"/>
<path d="M0 0 C0.92345215 0.00829834 1.8469043 0.01659668 2.79833984 0.02514648 C9.43454334 0.19031683 14.74571808 0.95005641 20.5 4.4375 C21.41910156 4.95828125 22.33820313 5.4790625 23.28515625 6.015625 C33.78752896 12.29160546 41.77726089 19.90406759 45.25 31.875 C47.68311799 41.92363982 47.5 50.84363118 47.5 61.4375 C37.6 61.4375 27.7 61.4375 17.5 61.4375 C17.396875 58.9625 17.29375 56.4875 17.1875 53.9375 C16.79198863 44.17368395 16.79198863 44.17368395 12.0390625 35.890625 C6.82161758 31.36035575 3.21037525 31.08360795 -3.515625 31.1640625 C-7.57753773 31.53622728 -9.58460596 32.59499081 -12.5 35.4375 C-16.18750393 40.83960636 -17.0850916 44.62298132 -17.01757812 51.09155273 C-17.0245874 51.92828522 -17.03159668 52.7650177 -17.03881836 53.62710571 C-17.05633123 56.37544578 -17.04479867 59.12274437 -17.03125 61.87109375 C-17.0339471 63.79248755 -17.03783134 65.71388002 -17.04284668 67.63526917 C-17.04873286 71.65582313 -17.04020809 75.67602078 -17.02148438 79.6965332 C-16.99871081 84.83563115 -17.01181345 89.97389267 -17.03577423 95.11295986 C-17.05026915 99.07910903 -17.04560904 103.04506185 -17.03526306 107.01121712 C-17.03260518 108.90533613 -17.03583233 110.79947329 -17.04518127 112.69357109 C-17.05540622 115.34754104 -17.03976305 118.00018115 -17.01757812 120.65405273 C-17.02567505 121.42780746 -17.03377197 122.20156219 -17.04211426 122.99876404 C-16.95683889 128.53983551 -15.57439806 132.79961882 -12.5 137.4375 C-7.76247166 141.83663346 -4.53169338 142.9120432 1.82421875 142.84765625 C6.39677182 142.14675395 9.38494331 139.754251 12.5 136.4375 C14.50590779 133.27074955 14.50590779 133.27074955 15.5 130.4375 C16.16 130.4375 16.82 130.4375 17.5 130.4375 C17.5 124.1675 17.5 117.8975 17.5 111.4375 C27.4 111.4375 37.3 111.4375 47.5 111.4375 C48.09843781 133.43008963 48.09843781 133.43008963 43.5 144.4375 C43.08427734 145.53384766 43.08427734 145.53384766 42.66015625 146.65234375 C38.24412977 156.92927173 29.07616069 164.9154927 19.09472656 169.55566406 C11.80569928 172.44533145 5.41727439 172.98959715 -2.375 172.8125 C-4.02628906 172.81056641 -4.02628906 172.81056641 -5.7109375 172.80859375 C-10.84061154 172.75256576 -14.77518796 172.58709114 -19.5 170.4375 C-19.5 169.7775 -19.5 169.1175 -19.5 168.4375 C-20.510625 168.23125 -21.52125 168.025 -22.5625 167.8125 C-31.41106801 165.23092583 -37.55458883 156.52008286 -41.98046875 148.8828125 C-46.13157892 140.8727524 -47.80015677 134.08169757 -47.79052734 125.12841797 C-47.79724457 124.22168839 -47.80396179 123.3149588 -47.81088257 122.38075256 C-47.82980585 119.39700769 -47.8337844 116.41348858 -47.8359375 113.4296875 C-47.84237108 111.34091095 -47.84909986 109.25213529 -47.85610962 107.1633606 C-47.86806949 102.78727126 -47.87179194 98.41126077 -47.87060547 94.03515625 C-47.87040276 88.45719591 -47.89766172 82.87974777 -47.93214989 77.30190849 C-47.95451106 72.98645762 -47.95844014 68.67112801 -47.95738602 64.35562515 C-47.95972978 62.30094774 -47.96848337 60.24626635 -47.98405075 58.19164658 C-48.11191042 39.56774076 -45.86512199 26.13326205 -32.5625 12.125 C-23.17643632 3.18932325 -12.8743487 -0.14997636 0 0 Z " fill="#F6DADE" transform="translate(551.5,879.5625)"/>
<path d="M0 0 C12.23880658 -0.02254946 24.47759947 -0.04091418 36.71642208 -0.05181217 C42.39876512 -0.05704139 48.08109327 -0.06413973 53.76342773 -0.07543945 C59.24229136 -0.08626696 64.72114062 -0.09227654 70.20001411 -0.09487724 C72.29529611 -0.09673174 74.39057728 -0.10035282 76.4858532 -0.10573006 C79.40977584 -0.11293868 82.33363833 -0.11399102 85.25756836 -0.11352539 C86.57062958 -0.1189183 86.57062958 -0.1189183 87.91021729 -0.12442017 C93.88594784 -0.11405216 93.88594784 -0.11405216 95 1 C95.10003289 3.13353174 95.13081048 5.27037542 95.1328125 7.40625 C95.13410156 8.70691406 95.13539063 10.00757813 95.13671875 11.34765625 C95.13462402 12.02844238 95.1325293 12.70922852 95.13037109 13.41064453 C95.1250224 15.49128515 95.1303168 17.57170989 95.13671875 19.65234375 C95.13542969 20.95300781 95.13414062 22.25367188 95.1328125 23.59375 C95.13168457 24.79708984 95.13055664 26.00042969 95.12939453 27.24023438 C95 30 95 30 94 31 C91.70848583 31.08790975 89.41427476 31.10694038 87.12109375 31.09765625 C86.09110008 31.09553383 86.09110008 31.09553383 85.04029846 31.09336853 C82.83932199 31.08775479 80.63844591 31.07520007 78.4375 31.0625 C76.94856917 31.05748676 75.45963676 31.05292355 73.97070312 31.04882812 C70.31376925 31.03778093 66.65689442 31.02050713 63 31 C63.01252808 32.30116257 63.02505615 33.60232513 63.03796387 34.94291687 C63.15714063 47.33958197 63.27483227 59.73626044 63.39115143 72.13295269 C63.45096562 78.50278613 63.5112632 84.87261415 63.57275391 91.24243164 C64.10239907 146.17702046 64.10239907 146.17702046 64 169 C59.60343827 169.02465504 55.2069128 169.04283842 50.81030273 169.05493164 C49.31355082 169.05997121 47.81680384 169.06680287 46.32006836 169.07543945 C44.17300193 169.08752159 42.02600038 169.09323191 39.87890625 169.09765625 C38.5854126 169.10289307 37.29191895 169.10812988 35.95922852 169.11352539 C33 169 33 169 32 168 C31.90363162 166.21572813 31.87812547 164.42760347 31.87974548 162.64073181 C31.87837082 161.47820389 31.87699615 160.31567596 31.87557983 159.11791992 C31.87917511 157.83111328 31.88277039 156.54430664 31.88647461 155.21850586 C31.88675648 153.85876976 31.88659875 152.4990335 31.8860321 151.13929749 C31.88574413 147.43698222 31.89164088 143.73469908 31.89860606 140.03239131 C31.90483957 136.16731219 31.9054434 132.30223242 31.90663147 128.43714905 C31.90974479 121.11315318 31.9179582 113.78917216 31.92798096 106.46518284 C31.93914206 98.12916552 31.94465254 89.79314751 31.94967639 81.45712459 C31.96014081 64.30473965 31.9784863 47.15237518 32 30 C21.44 30 10.88 30 0 30 C0 20.1 0 10.2 0 0 Z " fill="#F1D6DB" transform="translate(53,882)"/>
<path d="M0 0 C9.9 0 19.8 0 30 0 C30 55.77 30 111.54 30 169 C20.1 169 10.2 169 0 169 C0 113.23 0 57.46 0 0 Z " fill="#F5D9DE" transform="translate(965,882)"/>
<path d="M0 0 C22.66666667 0 22.66666667 0 30.25 5.25 C35.12699978 10.12699978 35.29993272 16.10058405 35.30639648 22.72021484 C35.31472 23.45780533 35.32304352 24.19539581 35.33161926 24.95533752 C35.355554 27.37392581 35.36447027 29.79224365 35.37109375 32.2109375 C35.38007163 33.90573196 35.38919367 35.60052566 35.39845276 37.2953186 C35.41489967 40.8407788 35.42263519 44.38614503 35.42553711 47.93164062 C35.43092097 52.45642286 35.46861917 56.98031244 35.51428127 61.50484276 C35.54413993 65.00348069 35.55126254 68.50190572 35.55226326 72.00065994 C35.55644696 73.66791504 35.56880634 75.33517186 35.58978081 77.00230026 C35.78645574 93.9834879 35.78645574 93.9834879 30 101 C26.82128234 104.17871766 24.46818191 105.48935064 20 106 C20 106.66 20 107.32 20 108 C13.4 108 6.8 108 0 108 C0 72.36 0 36.72 0 0 Z " fill="#301735" transform="translate(837,912)"/>
<path d="M0 0 C0.33 0 0.66 0 1 0 C1.33 149.82 1.66 299.64 2 454 C31.0094127 452.29356396 58.63050608 445.49867317 78.68505859 423.11962891 C92.84130989 406.42865715 101.16980446 387.99939966 107 367 C107.26718747 366.05930381 107.53437494 365.11860762 107.809659 364.14940548 C110.91756822 351.23742662 110.44687771 338.09976907 110.43273985 324.89611876 C110.43211013 321.22555648 110.4487904 317.55506494 110.46325684 313.88453674 C110.48593947 307.54144308 110.49790997 301.19840395 110.50238609 294.85527229 C110.50887345 285.68443932 110.53185594 276.5137045 110.55872939 267.3429113 C110.6018989 252.46014808 110.63192166 237.57738903 110.65356445 222.69458008 C110.67460373 208.24631713 110.70190445 193.79808813 110.73754883 179.34985352 C110.73974765 178.45769569 110.74194648 177.56553787 110.74421193 176.64634497 C110.75528232 172.17018285 110.76647499 167.69402105 110.77772844 163.21785939 C110.87077413 126.14526892 110.94243653 89.07266171 111 52 C111.33 52 111.66 52 112 52 C112 160.24 112 268.48 112 380 C111.34 380 110.68 380 110 380 C110.05800781 380.92296875 110.11601563 381.8459375 110.17578125 382.796875 C110.11370416 405.30264143 95.80852549 427.17243981 81 443 C80.21238281 443.87914062 79.42476562 444.75828125 78.61328125 445.6640625 C60.43440305 465.07489773 33.2067212 475.96305067 7 478 C4.69 478 2.38 478 0 478 C0 320.26 0 162.52 0 0 Z " fill="#C04070" transform="translate(552,288)"/>
<path d="M0 0 C3.75375 -0.12375 7.5075 -0.2475 11.375 -0.375 C12.53692871 -0.42962402 13.69885742 -0.48424805 14.89599609 -0.54052734 C22.72950361 -0.66415134 27.82717592 1.16498645 34 6 C38.26153594 10.46941574 39.22494654 13.81579522 39.16796875 19.9921875 C38.95079312 22.58819391 38.15972223 24.68055553 37 27 C36.34 27 35.68 27 35 27 C34.7525 27.598125 34.505 28.19625 34.25 28.8125 C32.81927475 31.31626919 31.4308418 32.48072388 29 34 C28.34 34 27.68 34 27 34 C27 34.66 27 35.32 27 36 C23.79217914 36.95376567 20.91812604 37.11621181 17.578125 37.09765625 C16.65418945 37.09515869 15.73025391 37.09266113 14.77832031 37.09008789 C13.61397461 37.08098389 12.44962891 37.07187988 11.25 37.0625 C7.5375 37.041875 3.825 37.02125 0 37 C0 24.79 0 12.58 0 0 Z " fill="#321A37" transform="translate(234,912)"/>
<path d="M0 0 C203.28 0 406.56 0 616 0 C616 4.29 616 8.58 616 13 C615.67 13 615.34 13 615 13 C615 9.04 615 5.08 615 1 C613.68209473 1.16604736 612.36418945 1.33209473 611.00634766 1.50317383 C565.74479919 7.20194746 565.74479919 7.20194746 546.140625 9.41015625 C540.14119294 10.08826578 534.15567954 10.86446661 528.171875 11.66796875 C525.08772395 11.99081707 522.09832753 12.06102766 519 12 C519 11.34 519 10.68 519 10 C518.23558594 10.06058594 517.47117187 10.12117187 516.68359375 10.18359375 C488.60132352 12.38016122 488.60132352 12.38016122 475 12 C475 11.67 475 11.34 475 11 C485.46848798 10.11980035 495.93713697 9.24154161 506.40597916 8.36556435 C511.27040341 7.95847789 516.13477596 7.55079528 520.99902344 7.14160156 C525.7192711 6.74454609 530.43966349 6.34925033 535.16014862 5.95502853 C536.93451633 5.80656259 538.70883664 5.6575288 540.48310089 5.50783157 C555.98110032 4.20092717 571.48401306 3.10828478 587 2 C296.93 1.505 296.93 1.505 1 1 C1 4.63 1 8.26 1 12 C0.67 12 0.34 12 0 12 C0 8.04 0 4.08 0 0 Z " fill="#9D5266" transform="translate(300,149)"/>
<path d="M0 0 C0.66 0 1.32 0 2 0 C2.26478149 1.85516235 2.26478149 1.85516235 2.53491211 3.74780273 C3.1885867 8.31986441 3.84772295 12.89112456 4.50854492 17.4621582 C4.79422574 19.4437132 5.07840863 21.42548474 5.36108398 23.4074707 C5.76676643 26.25008974 6.17776318 29.0918961 6.58984375 31.93359375 C6.71592514 32.82525742 6.84200653 33.71692108 6.97190857 34.63560486 C7.21687235 38.64712159 7.21687235 38.64712159 9 42 C9.40797692 45.00175722 9.7567247 47.98754707 10.0625 51 C10.15337891 51.82628906 10.24425781 52.65257812 10.33789062 53.50390625 C10.42361328 54.32761719 10.50933594 55.15132812 10.59765625 56 C10.67508057 56.7425 10.75250488 57.485 10.83227539 58.25 C11.07073712 62.15980044 11 66.08293432 11 70 C4.07 70 -2.86 70 -10 70 C-10 58.74907714 -10 58.74907714 -9.18969727 53.67993164 C-9.01273819 52.54918716 -8.83577911 51.41844269 -8.65345764 50.25343323 C-8.45973068 49.06765182 -8.26600372 47.88187042 -8.06640625 46.66015625 C-7.86901352 45.41624619 -7.67162079 44.17233612 -7.46824646 42.89073181 C-7.05234054 40.2789559 -6.63365456 37.66783598 -6.2097168 35.05737305 C-5.66682836 31.71399976 -5.13304776 28.36925441 -4.60249424 25.02390385 C-4.09371428 21.81880012 -3.58012082 18.61447223 -3.06640625 15.41015625 C-2.87470352 14.21020523 -2.68300079 13.01025421 -2.48548889 11.77394104 C-2.21532204 10.11092201 -2.21532204 10.11092201 -1.93969727 8.41430664 C-1.78203384 7.43853165 -1.62437042 6.46275665 -1.46192932 5.45741272 C-1 3 -1 3 0 0 Z " fill="#3A213E" transform="translate(404,935)"/>
<path d="M0 0 C187.44 0 374.88 0 568 0 C568 0.33 568 0.66 568 1 C555.625 1.99 555.625 1.99 543 3 C543 2.34 543 1.68 543 1 C363.81 1 184.62 1 0 1 C0 0.67 0 0.34 0 0 Z " fill="#E28E8B" transform="translate(328,150)"/>
<path d="M0 0 C88.11 0 176.22 0 267 0 C267 0.33 267 0.66 267 1 C254.625 1.99 254.625 1.99 242 3 C242 2.34 242 1.68 242 1 C162.14 1 82.28 1 0 1 C0 0.67 0 0.34 0 0 Z " fill="#DF6682" transform="translate(629,150)"/>
<path d="M0 0 C0 0.33 0 0.66 0 1 C-16.37814384 3.32678427 -32.75094184 5.49947415 -49.19140625 7.33984375 C-55.41445455 8.03738563 -61.62196541 8.83460889 -67.828125 9.66796875 C-70.91227605 9.99081707 -73.90167247 10.06102766 -77 10 C-77 9.34 -77 8.68 -77 8 C-77.76441406 8.06058594 -78.52882813 8.12117187 -79.31640625 8.18359375 C-107.39867648 10.38016122 -107.39867648 10.38016122 -121 10 C-121 9.67 -121 9.34 -121 9 C-110.53151202 8.11980035 -100.06286303 7.24154161 -89.59402084 6.36556435 C-84.72959659 5.95847789 -79.86522404 5.55079528 -75.00097656 5.14160156 C-37.87161573 2.01907746 -37.87161573 2.01907746 -20.828125 0.7734375 C-19.19034088 0.65121323 -19.19034088 0.65121323 -17.51947021 0.52651978 C-11.66200496 0.1113072 -5.87218128 -0.07547987 0 0 Z " fill="#752F51" transform="translate(896,151)"/>
<path d="M0 0 C2.42999536 2.27364177 3.42805835 3.68273845 4 7 C3.67 7 3.34 7 3 7 C2.67 32.08 2.34 57.16 2 83 C1.67 83 1.34 83 1 83 C0.05937412 73.12359492 -0.13330808 63.32612071 -0.09765625 53.41796875 C-0.09578578 51.86713202 -0.09436486 50.31629469 -0.09336853 48.76545715 C-0.08959284 44.72962749 -0.07980628 40.69383517 -0.06866455 36.65802002 C-0.05834259 32.52136744 -0.05384806 28.38470869 -0.04882812 24.24804688 C-0.03817836 16.16534766 -0.02116324 8.0826785 0 0 Z " fill="#6F566B" transform="translate(1088,967)"/>
<path d="M0 0 C37.95 0 75.9 0 115 0 C115 0.33 115 0.66 115 1 C102.625 1.99 102.625 1.99 90 3 C90 2.34 90 1.68 90 1 C60.3 1 30.6 1 0 1 C0 0.67 0 0.34 0 0 Z " fill="#DE4C7C" transform="translate(781,150)"/>
<path d="M0 0 C0.33 0 0.66 0 1 0 C1.02693575 2.12493141 1.04636628 4.24995912 1.0625 6.375 C1.07410156 7.55835938 1.08570313 8.74171875 1.09765625 9.9609375 C1 13 1 13 0 15 C-0.20329268 16.82963411 -0.36472196 18.66408368 -0.5 20.5 C-0.88888889 25.77777778 -0.88888889 25.77777778 -2 28 C-2.20222356 29.66272703 -2.36411387 31.33054185 -2.5 33 C-2.88888889 37.77777778 -2.88888889 37.77777778 -4 40 C-4.38787256 42.20266316 -4.73709495 44.41224568 -5.0625 46.625 C-5.5265625 49.780625 -5.5265625 49.780625 -6 53 C0.27 53 6.54 53 13 53 C12.67 50.69 12.34 48.38 12 46 C11.89248014 43.3206052 11.9529179 40.68367951 12 38 C12.33 38 12.66 38 13 38 C13.94323854 43.54152641 14 48.22209771 14 54 C7.07 54 0.14 54 -7 54 C-7 42.75 -7 42.75 -6.35742188 38.82568359 C-6.21727661 37.94552582 -6.07713135 37.06536804 -5.93273926 36.15853882 C-5.70306458 34.79228867 -5.70306458 34.79228867 -5.46875 33.3984375 C-5.31337769 32.435961 -5.15800537 31.4734845 -4.9979248 30.48184204 C-4.50596915 27.44497617 -4.00318383 24.41002344 -3.5 21.375 C-3.1620391 19.30089865 -2.8247928 17.22668074 -2.48828125 15.15234375 C-1.6671027 10.10017831 -0.83621516 5.04969748 0 0 Z " fill="#6D546A" transform="translate(401,951)"/>
<path d="M0 0 C0.66 0 1.32 0 2 0 C2.21586845 5.93638224 1.71249434 11.28751889 0 17 C-1 18 -1 18 -3.86743164 18.11352539 C-5.11903076 18.10828857 -6.37062988 18.10305176 -7.66015625 18.09765625 C-8.65685585 18.09553383 -8.65685585 18.09553383 -9.6736908 18.09336853 C-11.80333899 18.08775518 -13.93288339 18.07520054 -16.0625 18.0625 C-17.50325369 18.05748671 -18.94400903 18.05292351 -20.38476562 18.04882812 C-23.92321102 18.03778145 -27.46159539 18.02050792 -31 18 C-31.05429959 16.25034642 -31.09292823 14.50020213 -31.125 12.75 C-31.15980469 11.28820313 -31.15980469 11.28820313 -31.1953125 9.796875 C-31 7 -31 7 -29 3 C-29.33 7.29 -29.66 11.58 -30 16 C-20.76 16 -11.52 16 -2 16 C-1.34 10.72 -0.68 5.44 0 0 Z " fill="#6D536A" transform="translate(387,1034)"/>
<path d="M0 0 C0.66 0 1.32 0 2 0 C2.19393875 2.14526099 2.37998676 4.29123677 2.5625 6.4375 C2.66691406 7.63246094 2.77132813 8.82742188 2.87890625 10.05859375 C2.91886719 11.02925781 2.95882813 11.99992187 3 13 C1.11680732 14.88319268 -2.11930137 14.13054285 -4.625 14.1328125 C-5.28709473 14.13376923 -5.94918945 14.13472595 -6.63134766 14.13571167 C-8.03352961 14.13639326 -9.4357147 14.13454042 -10.83789062 14.13037109 C-12.99095713 14.12502246 -15.14381502 14.1303167 -17.296875 14.13671875 C-18.65625046 14.13605796 -20.0156258 14.13477679 -21.375 14.1328125 C-22.62023437 14.13168457 -23.86546875 14.13055664 -25.1484375 14.12939453 C-28 14 -28 14 -29 13 C-29.14115161 10.32941149 -29.04247107 7.67567762 -29 5 C-28.67 5 -28.34 5 -28 5 C-28 7.31 -28 9.62 -28 12 C-18.43 12 -8.86 12 1 12 C0.67 8.04 0.34 4.08 0 0 Z " fill="#6A5167" transform="translate(451,1038)"/>
<path d="M0 0 C0 0.33 0 0.66 0 1 C-16.16866535 3.62370834 -31.6010974 5.87882819 -48 4 C-48 3.67 -48 3.34 -48 3 C-42.61094509 2.56823255 -37.22154551 2.14115709 -31.83178711 1.71826172 C-30.00160907 1.574016 -28.17152829 1.4285304 -26.34155273 1.28173828 C-23.69800559 1.06990867 -21.05413071 0.86266929 -18.41015625 0.65625 C-17.60353043 0.59062866 -16.7969046 0.52500732 -15.96583557 0.45739746 C-10.62799375 0.04643646 -5.35385196 -0.05613475 0 0 Z " fill="#7C3254" transform="translate(896,151)"/>
<path d="M0 0 C0.66 0.33 1.32 0.66 2 1 C-4.6 7.6 -11.2 14.2 -18 21 C-18.66 20.67 -19.32 20.34 -20 20 C-4.18691589 2.09345794 -4.18691589 2.09345794 0 0 Z " fill="#D27E82" transform="translate(597,207)"/>
<path d="M0 0 C0 0.33 0 0.66 0 1 C-3.16513278 1.51003854 -6.33230284 2.00615957 -9.5 2.5 C-10.8303125 2.71462891 -10.8303125 2.71462891 -12.1875 2.93359375 C-17.53076099 3.75865611 -22.59396514 4.15157107 -28 4 C-27 2 -27 2 -25.3125 1.3671875 C-16.90029659 -0.42324768 -8.55249181 -0.17859032 0 0 Z " fill="#411E3B" transform="translate(861,155)"/>
<path d="M0 0 C0.66 0 1.32 0 2 0 C2.08703823 3.43734063 2.14040272 6.87439837 2.1875 10.3125 C2.21263672 11.28896484 2.23777344 12.26542969 2.26367188 13.27148438 C2.27333984 14.20927734 2.28300781 15.14707031 2.29296875 16.11328125 C2.3086792 16.97735596 2.32438965 17.84143066 2.34057617 18.73168945 C2 21 2 21 -1 24 C-0.67 16.08 -0.34 8.16 0 0 Z " fill="#4C324D" transform="translate(599,991)"/>
<path d="M0 0 C0.33 0 0.66 0 1 0 C1.24991456 6.65050424 0.73955334 12.56986533 -1 19 C-1.66 19 -2.32 19 -3 19 C-3.66 19.66 -4.32 20.32 -5 21 C-3.47512736 13.96212627 -1.77149249 6.9796804 0 0 Z " fill="#EF9E93" transform="translate(913,159)"/>
<path d="M0 0 C2.72880653 8.95131234 -0.78927732 19.25443671 -3 28 C-4.37137503 24.13875258 -3.75431051 20.81279577 -3.1875 16.8125 C-3.0942041 16.14919678 -3.0009082 15.48589355 -2.90478516 14.80249023 C-2.17737265 9.79772163 -1.20569857 4.90891562 0 0 Z " fill="#AB909E" transform="translate(374,945)"/>
<path d="M0 0 C-1.61010527 4.07376031 -4.53822271 6.76507069 -7.625 9.75 C-8.140625 10.25660156 -8.65625 10.76320312 -9.1875 11.28515625 C-10.45383339 12.52803902 -11.7263144 13.76465276 -13 15 C-13.66 14.67 -14.32 14.34 -15 14 C-2.98984772 0 -2.98984772 0 0 0 Z " fill="#532C45" transform="translate(576,200)"/>
<path d="M0 0 C-6.3506711 4.62860964 -11.75231961 4.48716877 -19.4375 4.25 C-20.55060547 4.23195313 -21.66371094 4.21390625 -22.81054688 4.1953125 C-25.54126646 4.14843319 -28.27017386 4.08282819 -31 4 C-31 3.67 -31 3.34 -31 3 C-30.16190796 2.97812622 -30.16190796 2.97812622 -29.30688477 2.95581055 C-26.72479948 2.88039202 -24.14387816 2.78405119 -21.5625 2.6875 C-20.68400391 2.66494141 -19.80550781 2.64238281 -18.90039062 2.61914062 C-13.43169908 2.39716422 -8.89131386 1.55334368 -3.79272461 -0.46557617 C-2 -1 -2 -1 0 0 Z " fill="#917789" transform="translate(573,1049)"/>
<path d="M0 0 C2.8290723 2.8290723 3.37611108 3.38144425 4 7 C3.01 6.67 2.02 6.34 1 6 C1 11.94 1 17.88 1 24 C0.67 24 0.34 24 0 24 C0 16.08 0 8.16 0 0 Z " fill="#634960" transform="translate(1088,967)"/>
<path d="M0 0 C0.66 0 1.32 0 2 0 C2.08333357 4.8333472 1.95261487 9.23692563 1 14 C0.34 14 -0.32 14 -1 14 C-1.33 14.66 -1.66 15.32 -2 16 C-1.34 10.72 -0.68 5.44 0 0 Z " fill="#755B70" transform="translate(387,1034)"/>
<path d="M0 0 C0.66 0.33 1.32 0.66 2 1 C0.89718873 2.27200971 -0.20730769 3.54255853 -1.3125 4.8125 C-1.92738281 5.52019531 -2.54226563 6.22789062 -3.17578125 6.95703125 C-6.44911047 10.6228796 -6.44911047 10.6228796 -8 12 C-8.66 12 -9.32 12 -10 12 C-8.52278578 8.54798361 -6.56205999 6.35038064 -3.875 3.75 C-3.15054688 3.04359375 -2.42609375 2.3371875 -1.6796875 1.609375 C-1.12539063 1.07828125 -0.57109375 0.5471875 0 0 Z " fill="#D3B8C1" transform="translate(523,888)"/>
<path d="M0 0 C0.33 0 0.66 0 1 0 C1.08126087 2.08268593 1.13930839 4.16628658 1.1875 6.25 C1.23970703 7.99023438 1.23970703 7.99023438 1.29296875 9.765625 C0.97982934 13.22268407 0.34290892 14.51565563 -2 17 C-1.03644647 5.47835991 -1.03644647 5.47835991 0 0 Z " fill="#7F6578" transform="translate(401,951)"/>
<path d="M0 0 C0.33 0 0.66 0 1 0 C1.40178571 8.03571429 1.40178571 8.03571429 -2 12 C-1.85962479 10.18706911 -1.71255111 8.3746557 -1.5625 6.5625 C-1.48128906 5.55316406 -1.40007812 4.54382813 -1.31640625 3.50390625 C-1 1 -1 1 0 0 Z " fill="#795F73" transform="translate(397,981)"/>
</svg>
